<?xml version="1.0" encoding="UTF-8"?>
<svg width="256px" height="256px" viewBox="0 0 256 256" version="1.1" xmlns="http://www.w3.org/2000/svg" xmlns:xlink="http://www.w3.org/1999/xlink">
    <!-- Generator: Sketch 56.3 (81716) - https://sketch.com -->
    <title>Icons/Illustrative/cards/credit-card-256x256</title>
    <desc>Created with Sketch.</desc>
    <g id="Icons/Illustrative/cards/credit-card-256x256" stroke="none" stroke-width="1" fill="none" fill-rule="evenodd">
        <g id="Icons/Illustrative/Oval" fill="#F2F3F2">
            <circle id="Oval" cx="128" cy="128" r="128"></circle>
        </g>
        <path d="M193.4819,174.7204 C196.0579,174.7204 198.1459,172.6324 198.1459,170.0574 L198.1459,87.6614 C198.1459,85.0864 196.0589,82.9994 193.4839,82.9994 L62.6639,82.9994 C60.0879,82.9994 57.9999,85.0874 57.9999,87.6634 L57.9999,166.5254 C57.9999,171.0504 61.6709,174.7204 66.1959,174.7204 L193.4819,174.7204 Z" id="Fill-1" fill="#FFFFFF"></path>
        <path d="M198.1461,170.0573 C198.1461,172.6323 196.0581,174.7203 193.4831,174.7203 L66.1961,174.7203 C61.6701,174.7203 58.0001,171.0503 58.0001,166.5253 L58.0001,112.3073 L198.1461,112.3073 L198.1461,170.0573 Z" id="Fill-4" fill="#C41F3E"></path>
        <path d="M198.1461,92.8444 L198.1461,87.6614 C198.1461,85.0864 196.0591,82.9994 193.4851,82.9994 L62.6641,82.9994 C60.0881,82.9994 58.0001,85.0874 58.0001,87.6634 L58.0001,92.8444 L198.1461,92.8444 Z" id="Fill-7" fill="#C41F3E"></path>
        <polygon id="Fill-10" fill="#7B003A" points="58 112.3068 198.146 112.3068 198.146 95.3948 58 95.3948"></polygon>
        <polygon id="Fill-12" fill="#FFFFFF" points="65.723 140.2968 149.643 140.2968 149.643 124.2228 65.723 124.2228"></polygon>
        <path d="M163.9918,123.4215 C161.4798,123.4215 159.4448,125.4555 159.4448,127.9645 L159.4448,137.0675 C159.4448,139.5765 161.4738,141.6085 163.9918,141.6085 L185.8198,141.6085 C188.3308,141.6085 190.3648,139.5765 190.3648,137.0675 L190.3648,127.9645 C190.3648,125.4555 188.3368,123.4215 185.8198,123.4215 L163.9918,123.4215 Z" id="Fill-13" fill="#FFFFFF"></path>
        <path d="M134.2887,158.1803 C132.2777,158.1803 130.6467,159.8153 130.6467,161.8193 C130.6467,163.8273 132.2797,165.4553 134.2887,165.4553 L185.2087,165.4553 C187.2197,165.4553 188.8497,163.8243 188.8497,161.8193 C188.8497,159.8113 187.2177,158.1803 185.2087,158.1803 L134.2887,158.1803 Z" id="Fill-14" fill="#FFFFFF"></path>
    </g>
</svg>